<svg id="Capa_1" data-name="Capa 1" xmlns="http://www.w3.org/2000/svg" xmlns:xlink="http://www.w3.org/1999/xlink" viewBox="0 0 64 64"><defs><style>.cls-1{fill:url(#Degradado_sin_nombre_19);}</style><linearGradient id="Degradado_sin_nombre_19" x1="32" x2="32" y2="64" gradientUnits="userSpaceOnUse"><stop offset="0" stop-color="#ed7585"/><stop offset="0.5" stop-color="#e85267"/><stop offset="1" stop-color="#c1272d"/></linearGradient></defs><path class="cls-1" d="M9.12,41.05a39.88,39.88,0,0,1,3.82-16.32A73.72,73.72,0,0,1,24.54,6.84,80.37,80.37,0,0,1,30,1c1.32-1.27,2.58-1.29,3.88,0A80.84,80.84,0,0,1,50.15,22.83a44,44,0,0,1,4.48,14.36,26.74,26.74,0,0,1-1.2,12.58,20.65,20.65,0,0,1-11.76,12A22.25,22.25,0,0,1,31.51,64a24.72,24.72,0,0,1-15.58-6.24A20.41,20.41,0,0,1,9.26,44.11C9.15,43.09,9.14,42.07,9.12,41.05Z"/></svg>